HIERARCHY
ROOT hip
{
  OFFSET 0 0 0
  CHANNELS 6 Xposition Yposition Zposition Zrotation Yrotation Xrotation
  JOINT abdomen
  {
    OFFSET 0 20.6881 -0.73152
    CHANNELS 3 Zrotation Xrotation Yrotation
    JOINT chest
    {
      OFFSET 0 11.7043 -0.48768
      CHANNELS 3 Zrotation Xrotation Yrotation
      JOINT neck
      {
        OFFSET 0 22.1894 -2.19456
        CHANNELS 3 Zrotation Xrotation Yrotation
        JOINT head
        {
          OFFSET -0.24384 7.07133 1.2192
          CHANNELS 3 Zrotation Xrotation Yrotation
          JOINT leftEye
          {
            OFFSET 4.14528 8.04674 8.04672
            CHANNELS 3 Zrotation Xrotation Yrotation
            End Site
            {
              OFFSET 1 0 0
            }
          }
          JOINT rightEye
          {
            OFFSET -3.6576 8.04674 8.04672
            CHANNELS 3 Zrotation Xrotation Yrotation
            End Site
            {
              OFFSET 1 0 0
            }
          }
        }
      }
      JOINT rCollar
      {
        OFFSET -2.68224 19.2634 -4.8768
        CHANNELS 3 Zrotation Xrotation Yrotation
        JOINT rShldr
        {
          OFFSET -8.77824 -1.95073 1.46304
          CHANNELS 3 Zrotation Xrotation Yrotation
          JOINT rForeArm
          {
            OFFSET -28.1742 -1.7115 0.48768
            CHANNELS 3 Zrotation Xrotation Yrotation
            JOINT rHand
            {
              OFFSET -22.5879 0.773209 7.07136
              CHANNELS 3 Zrotation Xrotation Yrotation
              JOINT rThumb1
              {
                OFFSET -1.2192 -0.487915 3.41376
                CHANNELS 3 Zrotation Xrotation Yrotation
                JOINT rThumb2
                {
                  OFFSET -3.37035 -0.52449 3.41376
                  CHANNELS 3 Zrotation Xrotation Yrotation
                  End Site
                  {
                    OFFSET -1.78271 -1.18214 1.43049
                  }
                }
              }
              JOINT rIndex1
              {
                OFFSET -7.75947 0.938293 5.60832
                CHANNELS 3 Zrotation Xrotation Yrotation
                JOINT rIndex2
                {
                  OFFSET -2.54057 -0.884171 1.56538
                  CHANNELS 3 Zrotation Xrotation Yrotation
                  End Site
                  {
                    OFFSET -1.62519 -0.234802 1.16502
                  }
                }
              }
              JOINT rMid1
              {
                OFFSET -8.24714 1.18213 3.41376
                CHANNELS 3 Zrotation Xrotation Yrotation
                JOINT rMid2
                {
                  OFFSET -3.10165 -0.590103 1.0647
                  CHANNELS 3 Zrotation Xrotation Yrotation
                  End Site
                  {
                    OFFSET -2.48547 -0.328903 0.83742
                  }
                }
              }
              JOINT rRing1
              {
                OFFSET -8.82822 0.546677 1.51678
                CHANNELS 3 Zrotation Xrotation Yrotation
                JOINT rRing2
                {
                  OFFSET -2.60934 -0.819778 -0.0198488
                  CHANNELS 3 Zrotation Xrotation Yrotation
                  End Site
                  {
                    OFFSET -2.33842 -0.294052 0.168128
                  }
                }
              }
              JOINT rPinky1
              {
                OFFSET -8.27202 -0.0477905 -0.4584
                CHANNELS 3 Zrotation Xrotation Yrotation
                JOINT rPinky2
                {
                  OFFSET -1.82734 -0.647385 -0.700984
                  CHANNELS 3 Zrotation Xrotation Yrotation
                  End Site
                  {
                    OFFSET -1.69225 -0.51767 -0.607171
                  }
                }
              }
            }
          }
        }
      }
      JOINT lCollar
      {
        OFFSET 2.68224 19.2634 -4.8768
        CHANNELS 3 Zrotation Xrotation Yrotation
        JOINT lShldr
        {
          OFFSET 8.77824 -1.95073 1.46304
          CHANNELS 3 Zrotation Xrotation Yrotation
          JOINT lForeArm
          {
            OFFSET 28.1742 -1.7115 0.48768
            CHANNELS 3 Zrotation Xrotation Yrotation
            JOINT lHand
            {
              OFFSET 22.5879 0.773209 7.07136
              CHANNELS 3 Zrotation Xrotation Yrotation
              JOINT lThumb1
              {
                OFFSET 1.2192 -0.487915 3.41376
                CHANNELS 3 Zrotation Xrotation Yrotation
                JOINT lThumb2
                {
                  OFFSET 3.37035 -0.52449 3.41376
                  CHANNELS 3 Zrotation Xrotation Yrotation
                  End Site
                  {
                    OFFSET 1.78271 -1.18214 1.43049
                  }
                }
              }
              JOINT lIndex1
              {
                OFFSET 7.75947 0.938293 5.60832
                CHANNELS 3 Zrotation Xrotation Yrotation
                JOINT lIndex2
                {
                  OFFSET 2.54057 -0.884171 1.56538
                  CHANNELS 3 Zrotation Xrotation Yrotation
                  End Site
                  {
                    OFFSET 1.62519 -0.234802 1.16502
                  }
                }
              }
              JOINT lMid1
              {
                OFFSET 8.24714 1.18213 3.41376
                CHANNELS 3 Zrotation Xrotation Yrotation
                JOINT lMid2
                {
                  OFFSET 3.10165 -0.590103 1.0647
                  CHANNELS 3 Zrotation Xrotation Yrotation
                  End Site
                  {
                    OFFSET 2.48547 -0.328903 0.83742
                  }
                }
              }
              JOINT lRing1
              {
                OFFSET 8.82822 0.546677 1.51678
                CHANNELS 3 Zrotation Xrotation Yrotation
                JOINT lRing2
                {
                  OFFSET 2.60934 -0.819778 -0.0198488
                  CHANNELS 3 Zrotation Xrotation Yrotation
                  End Site
                  {
                    OFFSET 2.33842 -0.294052 0.168128
                  }
                }
              }
              JOINT lPinky1
              {
                OFFSET 8.27202 -0.0477905 -0.4584
                CHANNELS 3 Zrotation Xrotation Yrotation
                JOINT lPinky2
                {
                  OFFSET 1.82734 -0.647385 -0.700984
                  CHANNELS 3 Zrotation Xrotation Yrotation
                  End Site
                  {
                    OFFSET 1.69225 -0.51767 -0.607171
                  }
                }
              }
            }
          }
        }
      }
    }
  }
  JOINT rButtock
  {
    OFFSET -8.77824 4.35084 1.2192
    CHANNELS 3 Zrotation Xrotation Yrotation
    JOINT rThigh
    {
      OFFSET 0 -1.70687 -2.19456
      CHANNELS 3 Zrotation Xrotation Yrotation
      JOINT rShin
      {
        OFFSET 0 -36.8199 0.73152
        CHANNELS 3 Zrotation Xrotation Yrotation
        JOINT rFoot
        {
          OFFSET 0.73152 -45.1104 -5.12064
          CHANNELS 3 Zrotation Xrotation Yrotation
          End Site
          {
            OFFSET -1.1221 -3.69964 12.103
          }
        }
      }
    }
  }
  JOINT lButtock
  {
    OFFSET 8.77824 4.35084 1.2192
    CHANNELS 3 Zrotation Xrotation Yrotation
    JOINT lThigh
    {
      OFFSET 0 -1.70687 -2.19456
      CHANNELS 3 Zrotation Xrotation Yrotation
      JOINT lShin
      {
        OFFSET 0 -36.8199 0.73152
        CHANNELS 3 Zrotation Xrotation Yrotation
        JOINT lFoot
        {
          OFFSET -0.73152 -45.1104 -5.12064
          CHANNELS 3 Zrotation Xrotation Yrotation
          End Site
          {
            OFFSET 1.1221 -3.69964 12.103
          }
        }
      }
    }
  }
}
MOTION
Frames:	6
Frame Time:	0.00833333
10.3192 84.9173 31.0385 0.0 0.0 0.0 -0.140625 -0.000295017 -0.00400525 -0.0387669 -0.000394553 -0.00671562 2.39192e-15 -1.59028e-15 -5.28022e-17 7.20284e-15 3.18055e-15 -1.49089e-16 -0.0 0.0 0.0 -0.0 0.0 0.0 1.14173e-15 7.76503e-19 4.96962e-17 2.8205e-14 1.18028e-16 5.96354e-16 4.30518e-13 -1.30204e-13 -1.27222e-14 4.95727e-12 1.23545e-13 -9.54166e-14 1.16876e-11 -1.89025e-14 -2.29e-13 2.01846e-11 -2.8625e-14 -4.0075e-13 1.16969e-11 -1.51076e-14 -2.38542e-13 7.73091 5.47488 0.417314 1.16883e-11 -1.81888e-14 -2.3218e-13 2.90554 0.965183 0.102902 1.17012e-11 -1.77912e-14 -2.32976e-13 10.2786 0.731801 0.0259123 1.16875e-11 -2.06736e-14 -2.29e-13 2.22167 -0.733487 -0.20892 1.24377e-15 5.82377e-19 -1.49089e-16 2.18984e-14 -1.92573e-16 -1.39149e-15 4.34195e-13 1.25632e-13 -2.22639e-14 4.95324e-12 -1.45287e-13 -8.26944e-14 1.16892e-11 -4.17735e-14 -2.44903e-13 2.0189e-11 -6.99722e-14 -4.06316e-13 1.1681e-11 -3.57812e-14 -2.3218e-13 -7.73091 5.47488 -0.417314 1.16877e-11 -4.08502e-14 -2.38542e-13 -2.90554 0.965183 -0.102902 1.16729e-11 -4.09496e-14 -2.34566e-13 -10.2786 0.731801 -0.0259123 1.16871e-11 -4.45278e-14 -2.38542e-13 -2.22167 -0.733487 0.20892 -2.03217e-16 0.0 -3.88251e-19 0.41545 -2.89234 -0.0363694 -0.00657578 -0.313961 -0.0578453 -0.521683 3.20536 0.125418 2.03217e-16 0.0 3.88251e-19 -0.629354 -3.43714 0.0497312 0.0049779 0.672914 0.0432306 0.523145 2.76331 -0.116511
10.5162 83.3704 29.6067 -2.153 7.9546 2.8432 -0.28931 -0.00568546 0.153637 0.627166 -0.511209 0.0388725 2.76057 -0.422348 1.78692 -3.76516 -1.54554 2.51729 -0.0 0.0 0.0 -0.0 0.0 0.0 3.32032e-15 1.91663e-14 -2.56852e-14 3.37535 -10.9038 -2.9914 -3.086 -1.23348 4.98763 0.00658454 1.80011 0.252538 -1.02184e-11 -1.23198e-10 -1.84119e-10 -1.8495e-11 -2.13519e-10 -3.18112e-10 -1.02098e-11 -1.23196e-10 -1.84129e-10 7.73091 5.47488 0.417314 -1.02179e-11 -1.23198e-10 -1.84121e-10 2.90554 0.965183 0.102902 -1.02069e-11 -1.23198e-10 -1.84122e-10 10.2786 0.731801 0.0259123 -1.02191e-11 -1.23199e-10 -1.84117e-10 2.22167 -0.733487 -0.20892 3.40752e-15 1.9166e-14 -2.58339e-14 -4.10725 -8.3183 1.3291 3.19126 -1.29218 -5.14269 -0.0143476 2.65777 -0.372075 3.7059e-12 -1.37211e-10 2.7477e-12 6.47623e-12 -2.38301e-10 5.26045e-12 3.69858e-12 -1.37205e-10 2.75752e-12 -7.73091 5.47488 -0.417314 3.70544e-12 -1.37209e-10 2.75138e-12 -2.90554 0.965183 -0.102902 3.69005e-12 -1.37209e-10 2.7549e-12 -10.2786 0.731801 -0.0259123 3.70455e-12 -1.37212e-10 2.75058e-12 -2.22167 -0.733487 0.20892 -2.03217e-16 0.0 -3.88251e-19 -0.239412 -5.19403 -1.01048 0.0202446 7.91694 0.103674 -1.26293 -0.18708 -7.86227 2.03217e-16 0.0 3.88251e-19 1.23764 -5.63433 -0.825948 -0.012144 8.05342 -0.0851499 0.899101 -0.276107 5.38019
10.5199 83.3697 29.6049 -2.136 7.9569 2.8516 -0.446716 -0.0109038 0.317923 1.33289 -1.05168 0.0864254 5.70581 -0.871535 3.66953 -7.5968 -3.18584 5.16898 -0.0 0.0 0.0 -0.0 0.0 0.0 5.85216e-15 4.14348e-14 -5.29388e-14 5.61663 -22.3263 -6.53176 -6.11624 -2.50647 10.2684 -0.00374235 3.70324 0.520375 -3.25291e-11 -2.60768e-10 -3.89023e-10 -5.79839e-11 -4.51952e-10 -6.72154e-10 -3.25213e-11 -2.60768e-10 -3.89033e-10 7.73091 5.47488 0.417314 -3.25288e-11 -2.6077e-10 -3.89022e-10 2.90554 0.965183 0.102902 -3.252e-11 -2.6077e-10 -3.89024e-10 10.2786 0.731801 0.0259123 -3.25306e-11 -2.60769e-10 -3.89018e-10 2.22167 -0.733487 -0.20892 5.92622e-15 4.14342e-14 -5.30289e-14 -8.0121 -17.0947 2.8339 6.31402 -2.62366 -10.588 0.00816281 5.46256 -0.767454 -3.60891e-12 -2.90472e-10 9.66173e-12 -6.05968e-12 -5.04489e-10 1.77262e-11 -3.61525e-12 -2.90464e-10 9.66829e-12 -7.73091 5.47488 -0.417314 -3.60825e-12 -2.90468e-10 9.66252e-12 -2.90554 0.965183 -0.102902 -3.62437e-12 -2.90467e-10 9.66556e-12 -10.2786 0.731801 -0.0259123 -3.60966e-12 -2.9047e-10 9.66094e-12 -2.22167 -0.733487 0.20892 -2.03217e-16 0.0 -3.88251e-19 -1.01772 -7.62382 -2.05073 -0.0036687 16.6178 0.284199 -3.06268 -3.62511 -16.3394 2.03217e-16 0.0 3.88251e-19 3.14003 -7.95545 -1.75096 0.00685321 15.8561 -0.227789 1.92626 -3.42567 11.2023
10.516 83.3695 29.6038 -2.1563 7.9656 2.8525 -0.58659 -0.0164658 0.468922 1.96147 -1.53283 0.130091 8.36063 -1.26211 5.36191 -10.8883 -4.60077 7.57366 -0.0 0.0 0.0 -0.0 0.0 0.0 7.6775e-15 5.74974e-14 -7.71548e-14 6.19642 -32.3209 -10.4443 -8.62081 -3.58845 14.9895 -0.0280308 5.39991 0.760616 -5.40302e-11 -3.69556e-10 -5.519e-10 -9.58543e-11 -6.40499e-10 -9.53536e-10 -5.40233e-11 -3.69558e-10 -5.51909e-10 7.73091 5.47488 0.417314 -5.40303e-11 -3.69559e-10 -5.51897e-10 2.90554 0.965183 0.102902 -5.40231e-11 -3.69559e-10 -5.51899e-10 10.2786 0.731801 0.0259123 -5.40324e-11 -3.69557e-10 -5.51892e-10 2.22167 -0.733487 -0.20892 7.73504e-15 5.74967e-14 -7.72034e-14 -11.0643 -24.8983 4.35034 8.88596 -3.75182 -15.4581 0.061367 7.97197 -1.12591 -1.22607e-11 -4.1155e-10 8.73291e-12 -2.09492e-11 -7.14763e-10 1.6594e-11 -1.22662e-11 -4.11542e-10 8.73691e-12 -7.73091 5.47488 -0.417314 -1.22592e-11 -4.11545e-10 8.73122e-12 -2.90554 0.965183 -0.102902 -1.22756e-11 -4.11544e-10 8.73384e-12 -10.2786 0.731801 -0.0259123 -1.22606e-11 -4.11546e-10 8.72883e-12 -2.22167 -0.733487 0.20892 -2.03217e-16 0.0 -3.88251e-19 -1.78702 -9.78673 -2.98989 -0.0759369 24.3781 0.465225 -5.51346 -6.37953 -23.995 2.03217e-16 0.0 3.88251e-19 4.76734 -10.0203 -2.60492 0.0595734 22.814 -0.36819 3.38348 -6.09976 16.469
10.5124 83.369 29.6031 -2.1589 7.9276 2.8608 -0.682683 -0.0228874 0.586702 2.39554 -1.86573 0.163997 10.233 -1.51089 6.5776 -13.1197 -5.48625 9.33929 -0.0 0.0 0.0 -0.0 0.0 0.0 7.73655e-15 5.80455e-14 -9.37767e-14 5.54034 -39.109 -13.9173 -10.258 -4.29964 18.2863 -0.0534115 6.58084 0.929006 -7.35074e-11 -4.06389e-10 -6.09709e-10 -1.29678e-10 -7.04327e-10 -1.05327e-09 -7.35014e-11 -4.06392e-10 -6.09719e-10 7.73091 5.47488 0.417314 -7.3508e-11 -4.06392e-10 -6.09706e-10 2.90554 0.965183 0.102902 -7.35015e-11 -4.06392e-10 -6.09708e-10 10.2786 0.731801 0.0259123 -7.351e-11 -4.06389e-10 -6.097e-10 2.22167 -0.733487 -0.20892 7.76917e-15 5.80447e-14 -9.38264e-14 -12.9091 -30.3243 5.55164 10.5629 -4.49053 -18.8613 0.117888 9.74419 -1.38295 -2.4255e-11 -4.52173e-10 -1.1803e-11 -4.17229e-11 -7.8525e-10 -1.85331e-11 -2.42601e-11 -4.52166e-10 -1.17999e-11 -7.73091 5.47488 -0.417314 -2.42532e-11 -4.52167e-10 -1.18062e-11 -2.90554 0.965183 -0.102902 -2.42689e-11 -4.52166e-10 -1.18038e-11 -10.2786 0.731801 -0.0259123 -2.42535e-11 -4.52168e-10 -1.18094e-11 -2.22167 -0.733487 0.20892 -2.03217e-16 0.0 -3.88251e-19 -2.36468 -11.292 -3.64952 -0.16009 29.7874 0.61022 -7.66241 -8.03709 -29.4044 2.03217e-16 0.0 3.88251e-19 5.8486 -11.4515 -3.25841 0.119621 27.6602 -0.477896 4.70294 -7.8459 20.2347
10.5115 83.3689 29.6023 -2.1586 7.9162 2.864 -0.718276 -0.0308901 0.658294 2.55656 -1.99213 0.184326 10.9745 -1.56716 7.12241 -13.9836 -5.64681 10.194 -0.0 0.0 0.0 -0.0 0.0 0.0 4.63648e-15 3.17483e-14 -1.01248e-13 4.96264 -41.7332 -15.5519 -10.872 -4.56533 19.5717 -0.0652489 7.04289 0.995211 -8.46879e-11 -3.32229e-10 -4.82948e-10 -1.4813e-10 -5.75797e-10 -8.33892e-10 -8.46833e-11 -3.32229e-10 -4.82958e-10 7.73091 5.47488 0.417314 -8.46894e-11 -3.32229e-10 -4.82945e-10 2.90554 0.965183 0.102902 -8.46818e-11 -3.32228e-10 -4.82947e-10 10.2786 0.731801 0.0259123 -8.469e-11 -3.32226e-10 -4.82938e-10 2.22167 -0.733487 -0.20892 4.62129e-15 3.17477e-14 -1.01376e-13 -13.5651 -32.475 6.03155 11.1917 -4.76532 -20.1907 0.146149 10.4999 -1.49368 -3.80295e-11 -3.72215e-10 -5.68391e-11 -6.56297e-11 -6.46185e-10 -9.61226e-11 -3.80348e-11 -3.72209e-10 -5.68336e-11 -7.73091 5.47488 -0.417314 -3.80284e-11 -3.7221e-10 -5.68422e-11 -2.90554 0.965183 -0.102902 -3.80417e-11 -3.7221e-10 -5.68398e-11 -10.2786 0.731801 -0.0259123 -3.80256e-11 -3.7221e-10 -5.68464e-11 -2.22167 -0.733487 0.20892 -2.03217e-16 0.0 -3.88251e-19 -2.59681 -11.8831 -3.8986 -0.201985 31.906 0.673447 -8.59525 -8.61108 -31.5426 2.03217e-16 0.0 3.88251e-19 6.2269 -11.9996 -3.62697 0.149724 29.5498 -0.524573 5.30664 -8.48825 21.8231
